# xmcd
#
# Track frame offsets:
#      150
#      18419
#      46484
#      66845
#      93092
#      115771
#      139725
#      157071
#      184189
#      204839
#      223918
#      249158
#
# Disc length: 3535 seconds
#
# Revision: 1
# Processed by: cddbd v1.5.1PL0 Copyright (c) Steve Scherf et al.
# Submitted via: SoundClick v1.0
#
DISCID=a40dcd0c
DTITLE=Guitar Mac and His Blues Express - River City Shuffle
DYEAR=1996
DGENRE=Blues
TTITLE0=T-bone Shuffle
TTITLE1=I'm Guilty
TTITLE2=Pretty Girls
TTITLE3=I Read Your Ad
TTITLE4=Prozac
TTITLE5=Mary Jo
TTITLE6=Blow Wind Blow
TTITLE7=I Can't Sleep
TTITLE8=Traveling River Side
TTITLE9=Using That Thing
TTITLE10=The Hustle Is On
TTITLE11=Chicken and Hawk
EXTD=
EXTT0=
EXTT1=
EXTT2=
EXTT3=
EXTT4=
EXTT5=
EXTT6=
EXTT7=
EXTT8=
EXTT9=
EXTT10=
EXTT11=
PLAYORDER=
